<mxfile host="app.diagrams.net" modified="2024-01-27T07:23:31.094Z" agent="Mozilla/5.0 (Windows NT 10.0; Win64; x64) AppleWebKit/537.36 (KHTML, like Gecko) Chrome/120.0.0.0 Safari/537.36" etag="Leig5vTuMlxWYUU9Klon" version="23.0.2" type="device">
  <diagram id="C5RBs43oDa-KdzZeNtuy" name="Page-1">
    <mxGraphModel dx="5154" dy="3052" grid="1" gridSize="10" guides="1" tooltips="1" connect="1" arrows="1" fold="1" page="1" pageScale="1" pageWidth="827" pageHeight="1169" math="0" shadow="0">
      <root>
        <mxCell id="WIyWlLk6GJQsqaUBKTNV-0" />
        <mxCell id="WIyWlLk6GJQsqaUBKTNV-1" parent="WIyWlLk6GJQsqaUBKTNV-0" />
        <mxCell id="UE2ysa2cql5D2mdt5GFg-4" value="" style="html=1;whiteSpace=wrap;fillColor=#d5e8d4;strokeColor=#82b366;opacity=50;" vertex="1" parent="WIyWlLk6GJQsqaUBKTNV-1">
          <mxGeometry x="-80" y="-620" width="860" height="520" as="geometry" />
        </mxCell>
        <mxCell id="UE2ysa2cql5D2mdt5GFg-5" value="presentation layer" style="text;html=1;strokeColor=none;fillColor=none;align=center;verticalAlign=middle;whiteSpace=wrap;rounded=0;fontSize=50;fontColor=#009900;fontStyle=1" vertex="1" parent="WIyWlLk6GJQsqaUBKTNV-1">
          <mxGeometry y="-710" width="640" height="100" as="geometry" />
        </mxCell>
        <mxCell id="UE2ysa2cql5D2mdt5GFg-6" value="react" style="swimlane;fontStyle=1;align=center;verticalAlign=top;childLayout=stackLayout;horizontal=1;startSize=26;horizontalStack=0;resizeParent=1;resizeParentMax=0;resizeLast=0;collapsible=1;marginBottom=0;whiteSpace=wrap;html=1;" vertex="1" parent="WIyWlLk6GJQsqaUBKTNV-1">
          <mxGeometry x="70" y="-400" width="160" height="86" as="geometry">
            <mxRectangle x="70" y="-400" width="100" height="30" as="alternateBounds" />
          </mxGeometry>
        </mxCell>
        <mxCell id="UE2ysa2cql5D2mdt5GFg-7" value="+ field: type" style="text;strokeColor=none;fillColor=none;align=left;verticalAlign=top;spacingLeft=4;spacingRight=4;overflow=hidden;rotatable=0;points=[[0,0.5],[1,0.5]];portConstraint=eastwest;whiteSpace=wrap;html=1;" vertex="1" parent="UE2ysa2cql5D2mdt5GFg-6">
          <mxGeometry y="26" width="160" height="26" as="geometry" />
        </mxCell>
        <mxCell id="UE2ysa2cql5D2mdt5GFg-8" value="" style="line;strokeWidth=1;fillColor=none;align=left;verticalAlign=middle;spacingTop=-1;spacingLeft=3;spacingRight=3;rotatable=0;labelPosition=right;points=[];portConstraint=eastwest;strokeColor=inherit;" vertex="1" parent="UE2ysa2cql5D2mdt5GFg-6">
          <mxGeometry y="52" width="160" height="8" as="geometry" />
        </mxCell>
        <mxCell id="UE2ysa2cql5D2mdt5GFg-9" value="+ method(type): type" style="text;strokeColor=none;fillColor=none;align=left;verticalAlign=top;spacingLeft=4;spacingRight=4;overflow=hidden;rotatable=0;points=[[0,0.5],[1,0.5]];portConstraint=eastwest;whiteSpace=wrap;html=1;" vertex="1" parent="UE2ysa2cql5D2mdt5GFg-6">
          <mxGeometry y="60" width="160" height="26" as="geometry" />
        </mxCell>
        <mxCell id="UE2ysa2cql5D2mdt5GFg-10" value="react virtual dom" style="swimlane;fontStyle=1;align=center;verticalAlign=top;childLayout=stackLayout;horizontal=1;startSize=26;horizontalStack=0;resizeParent=1;resizeParentMax=0;resizeLast=0;collapsible=1;marginBottom=0;whiteSpace=wrap;html=1;" vertex="1" parent="WIyWlLk6GJQsqaUBKTNV-1">
          <mxGeometry x="290" y="-400" width="160" height="86" as="geometry">
            <mxRectangle x="70" y="-400" width="100" height="30" as="alternateBounds" />
          </mxGeometry>
        </mxCell>
        <mxCell id="UE2ysa2cql5D2mdt5GFg-11" value="+ field: type" style="text;strokeColor=none;fillColor=none;align=left;verticalAlign=top;spacingLeft=4;spacingRight=4;overflow=hidden;rotatable=0;points=[[0,0.5],[1,0.5]];portConstraint=eastwest;whiteSpace=wrap;html=1;" vertex="1" parent="UE2ysa2cql5D2mdt5GFg-10">
          <mxGeometry y="26" width="160" height="26" as="geometry" />
        </mxCell>
        <mxCell id="UE2ysa2cql5D2mdt5GFg-12" value="" style="line;strokeWidth=1;fillColor=none;align=left;verticalAlign=middle;spacingTop=-1;spacingLeft=3;spacingRight=3;rotatable=0;labelPosition=right;points=[];portConstraint=eastwest;strokeColor=inherit;" vertex="1" parent="UE2ysa2cql5D2mdt5GFg-10">
          <mxGeometry y="52" width="160" height="8" as="geometry" />
        </mxCell>
        <mxCell id="UE2ysa2cql5D2mdt5GFg-13" value="+ method(type): type" style="text;strokeColor=none;fillColor=none;align=left;verticalAlign=top;spacingLeft=4;spacingRight=4;overflow=hidden;rotatable=0;points=[[0,0.5],[1,0.5]];portConstraint=eastwest;whiteSpace=wrap;html=1;" vertex="1" parent="UE2ysa2cql5D2mdt5GFg-10">
          <mxGeometry y="60" width="160" height="26" as="geometry" />
        </mxCell>
        <mxCell id="UE2ysa2cql5D2mdt5GFg-14" value="react event handler" style="swimlane;fontStyle=1;align=center;verticalAlign=top;childLayout=stackLayout;horizontal=1;startSize=26;horizontalStack=0;resizeParent=1;resizeParentMax=0;resizeLast=0;collapsible=1;marginBottom=0;whiteSpace=wrap;html=1;" vertex="1" parent="WIyWlLk6GJQsqaUBKTNV-1">
          <mxGeometry x="550" y="-390" width="160" height="86" as="geometry">
            <mxRectangle x="70" y="-400" width="100" height="30" as="alternateBounds" />
          </mxGeometry>
        </mxCell>
        <mxCell id="UE2ysa2cql5D2mdt5GFg-15" value="+ field: type" style="text;strokeColor=none;fillColor=none;align=left;verticalAlign=top;spacingLeft=4;spacingRight=4;overflow=hidden;rotatable=0;points=[[0,0.5],[1,0.5]];portConstraint=eastwest;whiteSpace=wrap;html=1;" vertex="1" parent="UE2ysa2cql5D2mdt5GFg-14">
          <mxGeometry y="26" width="160" height="26" as="geometry" />
        </mxCell>
        <mxCell id="UE2ysa2cql5D2mdt5GFg-16" value="" style="line;strokeWidth=1;fillColor=none;align=left;verticalAlign=middle;spacingTop=-1;spacingLeft=3;spacingRight=3;rotatable=0;labelPosition=right;points=[];portConstraint=eastwest;strokeColor=inherit;" vertex="1" parent="UE2ysa2cql5D2mdt5GFg-14">
          <mxGeometry y="52" width="160" height="8" as="geometry" />
        </mxCell>
        <mxCell id="UE2ysa2cql5D2mdt5GFg-17" value="+ method(type): type" style="text;strokeColor=none;fillColor=none;align=left;verticalAlign=top;spacingLeft=4;spacingRight=4;overflow=hidden;rotatable=0;points=[[0,0.5],[1,0.5]];portConstraint=eastwest;whiteSpace=wrap;html=1;" vertex="1" parent="UE2ysa2cql5D2mdt5GFg-14">
          <mxGeometry y="60" width="160" height="26" as="geometry" />
        </mxCell>
        <mxCell id="UE2ysa2cql5D2mdt5GFg-19" value="" style="html=1;whiteSpace=wrap;fillColor=none;" vertex="1" parent="WIyWlLk6GJQsqaUBKTNV-1">
          <mxGeometry x="-570" y="-560" width="270" height="140" as="geometry" />
        </mxCell>
        <mxCell id="UE2ysa2cql5D2mdt5GFg-20" value="singletons" style="text;html=1;strokeColor=none;fillColor=none;align=center;verticalAlign=middle;whiteSpace=wrap;rounded=0;fontSize=50;" vertex="1" parent="WIyWlLk6GJQsqaUBKTNV-1">
          <mxGeometry x="-770" y="-650" width="640" height="100" as="geometry" />
        </mxCell>
        <mxCell id="UE2ysa2cql5D2mdt5GFg-22" value="logger" style="swimlane;fontStyle=1;align=center;verticalAlign=top;childLayout=stackLayout;horizontal=1;startSize=26;horizontalStack=0;resizeParent=1;resizeParentMax=0;resizeLast=0;collapsible=1;marginBottom=0;whiteSpace=wrap;html=1;" vertex="1" parent="WIyWlLk6GJQsqaUBKTNV-1">
          <mxGeometry x="-540" y="-540" width="120" height="100" as="geometry">
            <mxRectangle x="70" y="-400" width="100" height="30" as="alternateBounds" />
          </mxGeometry>
        </mxCell>
        <mxCell id="UE2ysa2cql5D2mdt5GFg-23" value="+ field: type" style="text;strokeColor=none;fillColor=none;align=left;verticalAlign=top;spacingLeft=4;spacingRight=4;overflow=hidden;rotatable=0;points=[[0,0.5],[1,0.5]];portConstraint=eastwest;whiteSpace=wrap;html=1;" vertex="1" parent="UE2ysa2cql5D2mdt5GFg-22">
          <mxGeometry y="26" width="120" height="26" as="geometry" />
        </mxCell>
        <mxCell id="UE2ysa2cql5D2mdt5GFg-24" value="" style="line;strokeWidth=1;fillColor=none;align=left;verticalAlign=middle;spacingTop=-1;spacingLeft=3;spacingRight=3;rotatable=0;labelPosition=right;points=[];portConstraint=eastwest;strokeColor=inherit;" vertex="1" parent="UE2ysa2cql5D2mdt5GFg-22">
          <mxGeometry y="52" width="120" height="8" as="geometry" />
        </mxCell>
        <mxCell id="UE2ysa2cql5D2mdt5GFg-25" value="+ method(type): type" style="text;strokeColor=none;fillColor=none;align=left;verticalAlign=top;spacingLeft=4;spacingRight=4;overflow=hidden;rotatable=0;points=[[0,0.5],[1,0.5]];portConstraint=eastwest;whiteSpace=wrap;html=1;" vertex="1" parent="UE2ysa2cql5D2mdt5GFg-22">
          <mxGeometry y="60" width="120" height="40" as="geometry" />
        </mxCell>
        <mxCell id="UE2ysa2cql5D2mdt5GFg-26" value="" style="html=1;whiteSpace=wrap;fillColor=#dae8fc;labelBackgroundColor=default;strokeColor=#6c8ebf;opacity=50;" vertex="1" parent="WIyWlLk6GJQsqaUBKTNV-1">
          <mxGeometry x="-440" y="140" width="1810" height="930" as="geometry" />
        </mxCell>
        <mxCell id="UE2ysa2cql5D2mdt5GFg-27" value="business layer" style="text;html=1;strokeColor=none;fillColor=none;align=center;verticalAlign=middle;whiteSpace=wrap;rounded=0;fontSize=50;fontColor=#1E34FC;fontStyle=1" vertex="1" parent="WIyWlLk6GJQsqaUBKTNV-1">
          <mxGeometry x="1250" y="290" width="640" height="100" as="geometry" />
        </mxCell>
        <mxCell id="UE2ysa2cql5D2mdt5GFg-189" style="edgeStyle=orthogonalEdgeStyle;rounded=0;orthogonalLoop=1;jettySize=auto;html=1;" edge="1" parent="WIyWlLk6GJQsqaUBKTNV-1" source="UE2ysa2cql5D2mdt5GFg-28" target="UE2ysa2cql5D2mdt5GFg-117">
          <mxGeometry relative="1" as="geometry" />
        </mxCell>
        <mxCell id="UE2ysa2cql5D2mdt5GFg-197" style="edgeStyle=orthogonalEdgeStyle;rounded=0;orthogonalLoop=1;jettySize=auto;html=1;entryX=1;entryY=0.25;entryDx=0;entryDy=0;" edge="1" parent="WIyWlLk6GJQsqaUBKTNV-1" source="UE2ysa2cql5D2mdt5GFg-28" target="UE2ysa2cql5D2mdt5GFg-41">
          <mxGeometry relative="1" as="geometry" />
        </mxCell>
        <mxCell id="UE2ysa2cql5D2mdt5GFg-198" style="edgeStyle=orthogonalEdgeStyle;rounded=0;orthogonalLoop=1;jettySize=auto;html=1;" edge="1" parent="WIyWlLk6GJQsqaUBKTNV-1" source="UE2ysa2cql5D2mdt5GFg-28" target="UE2ysa2cql5D2mdt5GFg-81">
          <mxGeometry relative="1" as="geometry">
            <Array as="points">
              <mxPoint x="340" y="610" />
              <mxPoint x="-185" y="610" />
            </Array>
          </mxGeometry>
        </mxCell>
        <mxCell id="UE2ysa2cql5D2mdt5GFg-201" style="edgeStyle=orthogonalEdgeStyle;rounded=0;orthogonalLoop=1;jettySize=auto;html=1;entryX=0.5;entryY=0;entryDx=0;entryDy=0;" edge="1" parent="WIyWlLk6GJQsqaUBKTNV-1" source="UE2ysa2cql5D2mdt5GFg-28" target="UE2ysa2cql5D2mdt5GFg-72">
          <mxGeometry relative="1" as="geometry">
            <Array as="points">
              <mxPoint x="735" y="210" />
            </Array>
          </mxGeometry>
        </mxCell>
        <mxCell id="UE2ysa2cql5D2mdt5GFg-202" style="edgeStyle=orthogonalEdgeStyle;rounded=0;orthogonalLoop=1;jettySize=auto;html=1;entryX=0.75;entryY=0;entryDx=0;entryDy=0;" edge="1" parent="WIyWlLk6GJQsqaUBKTNV-1" source="UE2ysa2cql5D2mdt5GFg-28" target="UE2ysa2cql5D2mdt5GFg-103">
          <mxGeometry relative="1" as="geometry" />
        </mxCell>
        <mxCell id="UE2ysa2cql5D2mdt5GFg-203" style="edgeStyle=orthogonalEdgeStyle;rounded=0;orthogonalLoop=1;jettySize=auto;html=1;" edge="1" parent="WIyWlLk6GJQsqaUBKTNV-1" source="UE2ysa2cql5D2mdt5GFg-28" target="UE2ysa2cql5D2mdt5GFg-90">
          <mxGeometry relative="1" as="geometry">
            <Array as="points">
              <mxPoint x="580" y="530" />
              <mxPoint x="1195" y="530" />
            </Array>
          </mxGeometry>
        </mxCell>
        <mxCell id="UE2ysa2cql5D2mdt5GFg-28" value="controller" style="swimlane;fontStyle=1;align=center;verticalAlign=top;childLayout=stackLayout;horizontal=1;startSize=26;horizontalStack=0;resizeParent=1;resizeParentMax=0;resizeLast=0;collapsible=1;marginBottom=0;whiteSpace=wrap;html=1;" vertex="1" parent="WIyWlLk6GJQsqaUBKTNV-1">
          <mxGeometry x="270" y="140" width="360" height="86" as="geometry">
            <mxRectangle x="70" y="-400" width="100" height="30" as="alternateBounds" />
          </mxGeometry>
        </mxCell>
        <mxCell id="UE2ysa2cql5D2mdt5GFg-29" value="+ field: type" style="text;strokeColor=none;fillColor=none;align=left;verticalAlign=top;spacingLeft=4;spacingRight=4;overflow=hidden;rotatable=0;points=[[0,0.5],[1,0.5]];portConstraint=eastwest;whiteSpace=wrap;html=1;" vertex="1" parent="UE2ysa2cql5D2mdt5GFg-28">
          <mxGeometry y="26" width="360" height="26" as="geometry" />
        </mxCell>
        <mxCell id="UE2ysa2cql5D2mdt5GFg-30" value="" style="line;strokeWidth=1;fillColor=none;align=left;verticalAlign=middle;spacingTop=-1;spacingLeft=3;spacingRight=3;rotatable=0;labelPosition=right;points=[];portConstraint=eastwest;strokeColor=inherit;" vertex="1" parent="UE2ysa2cql5D2mdt5GFg-28">
          <mxGeometry y="52" width="360" height="8" as="geometry" />
        </mxCell>
        <mxCell id="UE2ysa2cql5D2mdt5GFg-31" value="+ method(type): type" style="text;strokeColor=none;fillColor=none;align=left;verticalAlign=top;spacingLeft=4;spacingRight=4;overflow=hidden;rotatable=0;points=[[0,0.5],[1,0.5]];portConstraint=eastwest;whiteSpace=wrap;html=1;" vertex="1" parent="UE2ysa2cql5D2mdt5GFg-28">
          <mxGeometry y="60" width="360" height="26" as="geometry" />
        </mxCell>
        <mxCell id="UE2ysa2cql5D2mdt5GFg-32" value="auth" style="swimlane;fontStyle=1;align=center;verticalAlign=top;childLayout=stackLayout;horizontal=1;startSize=26;horizontalStack=0;resizeParent=1;resizeParentMax=0;resizeLast=0;collapsible=1;marginBottom=0;whiteSpace=wrap;html=1;" vertex="1" parent="WIyWlLk6GJQsqaUBKTNV-1">
          <mxGeometry x="-280" y="410" width="190" height="86" as="geometry">
            <mxRectangle x="70" y="-400" width="100" height="30" as="alternateBounds" />
          </mxGeometry>
        </mxCell>
        <mxCell id="UE2ysa2cql5D2mdt5GFg-33" value="+ field: type" style="text;strokeColor=none;fillColor=none;align=left;verticalAlign=top;spacingLeft=4;spacingRight=4;overflow=hidden;rotatable=0;points=[[0,0.5],[1,0.5]];portConstraint=eastwest;whiteSpace=wrap;html=1;" vertex="1" parent="UE2ysa2cql5D2mdt5GFg-32">
          <mxGeometry y="26" width="190" height="26" as="geometry" />
        </mxCell>
        <mxCell id="UE2ysa2cql5D2mdt5GFg-34" value="" style="line;strokeWidth=1;fillColor=none;align=left;verticalAlign=middle;spacingTop=-1;spacingLeft=3;spacingRight=3;rotatable=0;labelPosition=right;points=[];portConstraint=eastwest;strokeColor=inherit;" vertex="1" parent="UE2ysa2cql5D2mdt5GFg-32">
          <mxGeometry y="52" width="190" height="8" as="geometry" />
        </mxCell>
        <mxCell id="UE2ysa2cql5D2mdt5GFg-35" value="+ method(type): type" style="text;strokeColor=none;fillColor=none;align=left;verticalAlign=top;spacingLeft=4;spacingRight=4;overflow=hidden;rotatable=0;points=[[0,0.5],[1,0.5]];portConstraint=eastwest;whiteSpace=wrap;html=1;" vertex="1" parent="UE2ysa2cql5D2mdt5GFg-32">
          <mxGeometry y="60" width="190" height="26" as="geometry" />
        </mxCell>
        <mxCell id="UE2ysa2cql5D2mdt5GFg-41" value="" style="html=1;whiteSpace=wrap;fillColor=#f8cecc;strokeColor=#b85450;opacity=50;" vertex="1" parent="WIyWlLk6GJQsqaUBKTNV-1">
          <mxGeometry x="-1397" y="-90" width="520" height="230" as="geometry" />
        </mxCell>
        <mxCell id="UE2ysa2cql5D2mdt5GFg-42" value="external systems" style="text;html=1;strokeColor=none;fillColor=none;align=center;verticalAlign=middle;whiteSpace=wrap;rounded=0;fontSize=50;fontColor=#FF0000;" vertex="1" parent="WIyWlLk6GJQsqaUBKTNV-1">
          <mxGeometry x="-1467" y="-178" width="640" height="100" as="geometry" />
        </mxCell>
        <mxCell id="UE2ysa2cql5D2mdt5GFg-43" value="google" style="swimlane;fontStyle=1;align=center;verticalAlign=top;childLayout=stackLayout;horizontal=1;startSize=26;horizontalStack=0;resizeParent=1;resizeParentMax=0;resizeLast=0;collapsible=1;marginBottom=0;whiteSpace=wrap;html=1;" vertex="1" parent="WIyWlLk6GJQsqaUBKTNV-1">
          <mxGeometry x="-1347" y="-68" width="120" height="100" as="geometry">
            <mxRectangle x="70" y="-400" width="100" height="30" as="alternateBounds" />
          </mxGeometry>
        </mxCell>
        <mxCell id="UE2ysa2cql5D2mdt5GFg-44" value="+ field: type" style="text;strokeColor=none;fillColor=none;align=left;verticalAlign=top;spacingLeft=4;spacingRight=4;overflow=hidden;rotatable=0;points=[[0,0.5],[1,0.5]];portConstraint=eastwest;whiteSpace=wrap;html=1;" vertex="1" parent="UE2ysa2cql5D2mdt5GFg-43">
          <mxGeometry y="26" width="120" height="26" as="geometry" />
        </mxCell>
        <mxCell id="UE2ysa2cql5D2mdt5GFg-45" value="" style="line;strokeWidth=1;fillColor=none;align=left;verticalAlign=middle;spacingTop=-1;spacingLeft=3;spacingRight=3;rotatable=0;labelPosition=right;points=[];portConstraint=eastwest;strokeColor=inherit;" vertex="1" parent="UE2ysa2cql5D2mdt5GFg-43">
          <mxGeometry y="52" width="120" height="8" as="geometry" />
        </mxCell>
        <mxCell id="UE2ysa2cql5D2mdt5GFg-46" value="+ method(type): type" style="text;strokeColor=none;fillColor=none;align=left;verticalAlign=top;spacingLeft=4;spacingRight=4;overflow=hidden;rotatable=0;points=[[0,0.5],[1,0.5]];portConstraint=eastwest;whiteSpace=wrap;html=1;" vertex="1" parent="UE2ysa2cql5D2mdt5GFg-43">
          <mxGeometry y="60" width="120" height="40" as="geometry" />
        </mxCell>
        <mxCell id="UE2ysa2cql5D2mdt5GFg-47" value="twitter" style="swimlane;fontStyle=1;align=center;verticalAlign=top;childLayout=stackLayout;horizontal=1;startSize=26;horizontalStack=0;resizeParent=1;resizeParentMax=0;resizeLast=0;collapsible=1;marginBottom=0;whiteSpace=wrap;html=1;" vertex="1" parent="WIyWlLk6GJQsqaUBKTNV-1">
          <mxGeometry x="-1167" y="-58" width="120" height="100" as="geometry">
            <mxRectangle x="70" y="-400" width="100" height="30" as="alternateBounds" />
          </mxGeometry>
        </mxCell>
        <mxCell id="UE2ysa2cql5D2mdt5GFg-48" value="+ field: type" style="text;strokeColor=none;fillColor=none;align=left;verticalAlign=top;spacingLeft=4;spacingRight=4;overflow=hidden;rotatable=0;points=[[0,0.5],[1,0.5]];portConstraint=eastwest;whiteSpace=wrap;html=1;" vertex="1" parent="UE2ysa2cql5D2mdt5GFg-47">
          <mxGeometry y="26" width="120" height="26" as="geometry" />
        </mxCell>
        <mxCell id="UE2ysa2cql5D2mdt5GFg-49" value="" style="line;strokeWidth=1;fillColor=none;align=left;verticalAlign=middle;spacingTop=-1;spacingLeft=3;spacingRight=3;rotatable=0;labelPosition=right;points=[];portConstraint=eastwest;strokeColor=inherit;" vertex="1" parent="UE2ysa2cql5D2mdt5GFg-47">
          <mxGeometry y="52" width="120" height="8" as="geometry" />
        </mxCell>
        <mxCell id="UE2ysa2cql5D2mdt5GFg-50" value="+ method(type): type" style="text;strokeColor=none;fillColor=none;align=left;verticalAlign=top;spacingLeft=4;spacingRight=4;overflow=hidden;rotatable=0;points=[[0,0.5],[1,0.5]];portConstraint=eastwest;whiteSpace=wrap;html=1;" vertex="1" parent="UE2ysa2cql5D2mdt5GFg-47">
          <mxGeometry y="60" width="120" height="40" as="geometry" />
        </mxCell>
        <mxCell id="UE2ysa2cql5D2mdt5GFg-51" value="facebook" style="swimlane;fontStyle=1;align=center;verticalAlign=top;childLayout=stackLayout;horizontal=1;startSize=26;horizontalStack=0;resizeParent=1;resizeParentMax=0;resizeLast=0;collapsible=1;marginBottom=0;whiteSpace=wrap;html=1;" vertex="1" parent="WIyWlLk6GJQsqaUBKTNV-1">
          <mxGeometry x="-1027" y="-58" width="120" height="100" as="geometry">
            <mxRectangle x="70" y="-400" width="100" height="30" as="alternateBounds" />
          </mxGeometry>
        </mxCell>
        <mxCell id="UE2ysa2cql5D2mdt5GFg-52" value="+ field: type" style="text;strokeColor=none;fillColor=none;align=left;verticalAlign=top;spacingLeft=4;spacingRight=4;overflow=hidden;rotatable=0;points=[[0,0.5],[1,0.5]];portConstraint=eastwest;whiteSpace=wrap;html=1;" vertex="1" parent="UE2ysa2cql5D2mdt5GFg-51">
          <mxGeometry y="26" width="120" height="26" as="geometry" />
        </mxCell>
        <mxCell id="UE2ysa2cql5D2mdt5GFg-53" value="" style="line;strokeWidth=1;fillColor=none;align=left;verticalAlign=middle;spacingTop=-1;spacingLeft=3;spacingRight=3;rotatable=0;labelPosition=right;points=[];portConstraint=eastwest;strokeColor=inherit;" vertex="1" parent="UE2ysa2cql5D2mdt5GFg-51">
          <mxGeometry y="52" width="120" height="8" as="geometry" />
        </mxCell>
        <mxCell id="UE2ysa2cql5D2mdt5GFg-54" value="+ method(type): type" style="text;strokeColor=none;fillColor=none;align=left;verticalAlign=top;spacingLeft=4;spacingRight=4;overflow=hidden;rotatable=0;points=[[0,0.5],[1,0.5]];portConstraint=eastwest;whiteSpace=wrap;html=1;" vertex="1" parent="UE2ysa2cql5D2mdt5GFg-51">
          <mxGeometry y="60" width="120" height="40" as="geometry" />
        </mxCell>
        <mxCell id="UE2ysa2cql5D2mdt5GFg-72" value="user" style="swimlane;fontStyle=1;align=center;verticalAlign=top;childLayout=stackLayout;horizontal=1;startSize=26;horizontalStack=0;resizeParent=1;resizeParentMax=0;resizeLast=0;collapsible=1;marginBottom=0;whiteSpace=wrap;html=1;" vertex="1" parent="WIyWlLk6GJQsqaUBKTNV-1">
          <mxGeometry x="640" y="720" width="190" height="250" as="geometry">
            <mxRectangle x="70" y="-400" width="100" height="30" as="alternateBounds" />
          </mxGeometry>
        </mxCell>
        <mxCell id="UE2ysa2cql5D2mdt5GFg-73" value="- ID: string" style="text;strokeColor=none;fillColor=none;align=left;verticalAlign=top;spacingLeft=4;spacingRight=4;overflow=hidden;rotatable=0;points=[[0,0.5],[1,0.5]];portConstraint=eastwest;whiteSpace=wrap;html=1;" vertex="1" parent="UE2ysa2cql5D2mdt5GFg-72">
          <mxGeometry y="26" width="190" height="26" as="geometry" />
        </mxCell>
        <mxCell id="UE2ysa2cql5D2mdt5GFg-74" value="- name : string" style="text;strokeColor=none;fillColor=none;align=left;verticalAlign=top;spacingLeft=4;spacingRight=4;overflow=hidden;rotatable=0;points=[[0,0.5],[1,0.5]];portConstraint=eastwest;whiteSpace=wrap;html=1;" vertex="1" parent="UE2ysa2cql5D2mdt5GFg-72">
          <mxGeometry y="52" width="190" height="26" as="geometry" />
        </mxCell>
        <mxCell id="UE2ysa2cql5D2mdt5GFg-75" value="- role : string" style="text;strokeColor=none;fillColor=none;align=left;verticalAlign=top;spacingLeft=4;spacingRight=4;overflow=hidden;rotatable=0;points=[[0,0.5],[1,0.5]];portConstraint=eastwest;whiteSpace=wrap;html=1;" vertex="1" parent="UE2ysa2cql5D2mdt5GFg-72">
          <mxGeometry y="78" width="190" height="26" as="geometry" />
        </mxCell>
        <mxCell id="UE2ysa2cql5D2mdt5GFg-78" value="- register_date : string" style="text;strokeColor=none;fillColor=none;align=left;verticalAlign=top;spacingLeft=4;spacingRight=4;overflow=hidden;rotatable=0;points=[[0,0.5],[1,0.5]];portConstraint=eastwest;whiteSpace=wrap;html=1;" vertex="1" parent="UE2ysa2cql5D2mdt5GFg-72">
          <mxGeometry y="104" width="190" height="26" as="geometry" />
        </mxCell>
        <mxCell id="UE2ysa2cql5D2mdt5GFg-79" value="- password : string" style="text;strokeColor=none;fillColor=none;align=left;verticalAlign=top;spacingLeft=4;spacingRight=4;overflow=hidden;rotatable=0;points=[[0,0.5],[1,0.5]];portConstraint=eastwest;whiteSpace=wrap;html=1;" vertex="1" parent="UE2ysa2cql5D2mdt5GFg-72">
          <mxGeometry y="130" width="190" height="20" as="geometry" />
        </mxCell>
        <mxCell id="UE2ysa2cql5D2mdt5GFg-76" value="" style="line;strokeWidth=1;fillColor=none;align=left;verticalAlign=middle;spacingTop=-1;spacingLeft=3;spacingRight=3;rotatable=0;labelPosition=right;points=[];portConstraint=eastwest;strokeColor=inherit;" vertex="1" parent="UE2ysa2cql5D2mdt5GFg-72">
          <mxGeometry y="150" width="190" height="20" as="geometry" />
        </mxCell>
        <mxCell id="UE2ysa2cql5D2mdt5GFg-80" value="+ setter (type): type" style="text;strokeColor=none;fillColor=none;align=left;verticalAlign=top;spacingLeft=4;spacingRight=4;overflow=hidden;rotatable=0;points=[[0,0.5],[1,0.5]];portConstraint=eastwest;whiteSpace=wrap;html=1;" vertex="1" parent="UE2ysa2cql5D2mdt5GFg-72">
          <mxGeometry y="170" width="190" height="40" as="geometry" />
        </mxCell>
        <mxCell id="UE2ysa2cql5D2mdt5GFg-77" value="+ getter (type): type" style="text;strokeColor=none;fillColor=none;align=left;verticalAlign=top;spacingLeft=4;spacingRight=4;overflow=hidden;rotatable=0;points=[[0,0.5],[1,0.5]];portConstraint=eastwest;whiteSpace=wrap;html=1;" vertex="1" parent="UE2ysa2cql5D2mdt5GFg-72">
          <mxGeometry y="210" width="190" height="40" as="geometry" />
        </mxCell>
        <mxCell id="UE2ysa2cql5D2mdt5GFg-81" value="turing_machine" style="swimlane;fontStyle=1;align=center;verticalAlign=top;childLayout=stackLayout;horizontal=1;startSize=26;horizontalStack=0;resizeParent=1;resizeParentMax=0;resizeLast=0;collapsible=1;marginBottom=0;whiteSpace=wrap;html=1;" vertex="1" parent="WIyWlLk6GJQsqaUBKTNV-1">
          <mxGeometry x="-280" y="690" width="190" height="250" as="geometry">
            <mxRectangle x="70" y="-400" width="100" height="30" as="alternateBounds" />
          </mxGeometry>
        </mxCell>
        <mxCell id="UE2ysa2cql5D2mdt5GFg-82" value="- ID: string" style="text;strokeColor=none;fillColor=none;align=left;verticalAlign=top;spacingLeft=4;spacingRight=4;overflow=hidden;rotatable=0;points=[[0,0.5],[1,0.5]];portConstraint=eastwest;whiteSpace=wrap;html=1;" vertex="1" parent="UE2ysa2cql5D2mdt5GFg-81">
          <mxGeometry y="26" width="190" height="26" as="geometry" />
        </mxCell>
        <mxCell id="UE2ysa2cql5D2mdt5GFg-83" value="- name : string" style="text;strokeColor=none;fillColor=none;align=left;verticalAlign=top;spacingLeft=4;spacingRight=4;overflow=hidden;rotatable=0;points=[[0,0.5],[1,0.5]];portConstraint=eastwest;whiteSpace=wrap;html=1;" vertex="1" parent="UE2ysa2cql5D2mdt5GFg-81">
          <mxGeometry y="52" width="190" height="26" as="geometry" />
        </mxCell>
        <mxCell id="UE2ysa2cql5D2mdt5GFg-84" value="- author_id : string" style="text;strokeColor=none;fillColor=none;align=left;verticalAlign=top;spacingLeft=4;spacingRight=4;overflow=hidden;rotatable=0;points=[[0,0.5],[1,0.5]];portConstraint=eastwest;whiteSpace=wrap;html=1;" vertex="1" parent="UE2ysa2cql5D2mdt5GFg-81">
          <mxGeometry y="78" width="190" height="26" as="geometry" />
        </mxCell>
        <mxCell id="UE2ysa2cql5D2mdt5GFg-85" value="- creation_date : string" style="text;strokeColor=none;fillColor=none;align=left;verticalAlign=top;spacingLeft=4;spacingRight=4;overflow=hidden;rotatable=0;points=[[0,0.5],[1,0.5]];portConstraint=eastwest;whiteSpace=wrap;html=1;" vertex="1" parent="UE2ysa2cql5D2mdt5GFg-81">
          <mxGeometry y="104" width="190" height="26" as="geometry" />
        </mxCell>
        <mxCell id="UE2ysa2cql5D2mdt5GFg-86" value="- code : string" style="text;strokeColor=none;fillColor=none;align=left;verticalAlign=top;spacingLeft=4;spacingRight=4;overflow=hidden;rotatable=0;points=[[0,0.5],[1,0.5]];portConstraint=eastwest;whiteSpace=wrap;html=1;" vertex="1" parent="UE2ysa2cql5D2mdt5GFg-81">
          <mxGeometry y="130" width="190" height="20" as="geometry" />
        </mxCell>
        <mxCell id="UE2ysa2cql5D2mdt5GFg-87" value="" style="line;strokeWidth=1;fillColor=none;align=left;verticalAlign=middle;spacingTop=-1;spacingLeft=3;spacingRight=3;rotatable=0;labelPosition=right;points=[];portConstraint=eastwest;strokeColor=inherit;" vertex="1" parent="UE2ysa2cql5D2mdt5GFg-81">
          <mxGeometry y="150" width="190" height="20" as="geometry" />
        </mxCell>
        <mxCell id="UE2ysa2cql5D2mdt5GFg-88" value="+ setter (type): type" style="text;strokeColor=none;fillColor=none;align=left;verticalAlign=top;spacingLeft=4;spacingRight=4;overflow=hidden;rotatable=0;points=[[0,0.5],[1,0.5]];portConstraint=eastwest;whiteSpace=wrap;html=1;" vertex="1" parent="UE2ysa2cql5D2mdt5GFg-81">
          <mxGeometry y="170" width="190" height="40" as="geometry" />
        </mxCell>
        <mxCell id="UE2ysa2cql5D2mdt5GFg-89" value="+ getter (type): type" style="text;strokeColor=none;fillColor=none;align=left;verticalAlign=top;spacingLeft=4;spacingRight=4;overflow=hidden;rotatable=0;points=[[0,0.5],[1,0.5]];portConstraint=eastwest;whiteSpace=wrap;html=1;" vertex="1" parent="UE2ysa2cql5D2mdt5GFg-81">
          <mxGeometry y="210" width="190" height="40" as="geometry" />
        </mxCell>
        <mxCell id="UE2ysa2cql5D2mdt5GFg-90" value="challenge" style="swimlane;fontStyle=1;align=center;verticalAlign=top;childLayout=stackLayout;horizontal=1;startSize=26;horizontalStack=0;resizeParent=1;resizeParentMax=0;resizeLast=0;collapsible=1;marginBottom=0;whiteSpace=wrap;html=1;" vertex="1" parent="WIyWlLk6GJQsqaUBKTNV-1">
          <mxGeometry x="1100" y="640" width="190" height="300" as="geometry">
            <mxRectangle x="70" y="-400" width="100" height="30" as="alternateBounds" />
          </mxGeometry>
        </mxCell>
        <mxCell id="UE2ysa2cql5D2mdt5GFg-91" value="- ID: string" style="text;strokeColor=none;fillColor=none;align=left;verticalAlign=top;spacingLeft=4;spacingRight=4;overflow=hidden;rotatable=0;points=[[0,0.5],[1,0.5]];portConstraint=eastwest;whiteSpace=wrap;html=1;" vertex="1" parent="UE2ysa2cql5D2mdt5GFg-90">
          <mxGeometry y="26" width="190" height="26" as="geometry" />
        </mxCell>
        <mxCell id="UE2ysa2cql5D2mdt5GFg-92" value="- name : string" style="text;strokeColor=none;fillColor=none;align=left;verticalAlign=top;spacingLeft=4;spacingRight=4;overflow=hidden;rotatable=0;points=[[0,0.5],[1,0.5]];portConstraint=eastwest;whiteSpace=wrap;html=1;" vertex="1" parent="UE2ysa2cql5D2mdt5GFg-90">
          <mxGeometry y="52" width="190" height="26" as="geometry" />
        </mxCell>
        <mxCell id="UE2ysa2cql5D2mdt5GFg-93" value="- creator_id : string" style="text;strokeColor=none;fillColor=none;align=left;verticalAlign=top;spacingLeft=4;spacingRight=4;overflow=hidden;rotatable=0;points=[[0,0.5],[1,0.5]];portConstraint=eastwest;whiteSpace=wrap;html=1;" vertex="1" parent="UE2ysa2cql5D2mdt5GFg-90">
          <mxGeometry y="78" width="190" height="26" as="geometry" />
        </mxCell>
        <mxCell id="UE2ysa2cql5D2mdt5GFg-94" value="- creation_date : string" style="text;strokeColor=none;fillColor=none;align=left;verticalAlign=top;spacingLeft=4;spacingRight=4;overflow=hidden;rotatable=0;points=[[0,0.5],[1,0.5]];portConstraint=eastwest;whiteSpace=wrap;html=1;" vertex="1" parent="UE2ysa2cql5D2mdt5GFg-90">
          <mxGeometry y="104" width="190" height="26" as="geometry" />
        </mxCell>
        <mxCell id="UE2ysa2cql5D2mdt5GFg-95" value="- description : string" style="text;strokeColor=none;fillColor=none;align=left;verticalAlign=top;spacingLeft=4;spacingRight=4;overflow=hidden;rotatable=0;points=[[0,0.5],[1,0.5]];portConstraint=eastwest;whiteSpace=wrap;html=1;" vertex="1" parent="UE2ysa2cql5D2mdt5GFg-90">
          <mxGeometry y="130" width="190" height="20" as="geometry" />
        </mxCell>
        <mxCell id="UE2ysa2cql5D2mdt5GFg-100" value="- expiry_date : string" style="text;strokeColor=none;fillColor=none;align=left;verticalAlign=top;spacingLeft=4;spacingRight=4;overflow=hidden;rotatable=0;points=[[0,0.5],[1,0.5]];portConstraint=eastwest;whiteSpace=wrap;html=1;" vertex="1" parent="UE2ysa2cql5D2mdt5GFg-90">
          <mxGeometry y="150" width="190" height="20" as="geometry" />
        </mxCell>
        <mxCell id="UE2ysa2cql5D2mdt5GFg-101" value="- legal_words : list&amp;lt;string&amp;gt;" style="text;strokeColor=none;fillColor=none;align=left;verticalAlign=top;spacingLeft=4;spacingRight=4;overflow=hidden;rotatable=0;points=[[0,0.5],[1,0.5]];portConstraint=eastwest;whiteSpace=wrap;html=1;" vertex="1" parent="UE2ysa2cql5D2mdt5GFg-90">
          <mxGeometry y="170" width="190" height="20" as="geometry" />
        </mxCell>
        <mxCell id="UE2ysa2cql5D2mdt5GFg-102" value="- illegal_words : list&amp;lt;string&amp;gt;" style="text;strokeColor=none;fillColor=none;align=left;verticalAlign=top;spacingLeft=4;spacingRight=4;overflow=hidden;rotatable=0;points=[[0,0.5],[1,0.5]];portConstraint=eastwest;whiteSpace=wrap;html=1;" vertex="1" parent="UE2ysa2cql5D2mdt5GFg-90">
          <mxGeometry y="190" width="190" height="20" as="geometry" />
        </mxCell>
        <mxCell id="UE2ysa2cql5D2mdt5GFg-96" value="" style="line;strokeWidth=1;fillColor=none;align=left;verticalAlign=middle;spacingTop=-1;spacingLeft=3;spacingRight=3;rotatable=0;labelPosition=right;points=[];portConstraint=eastwest;strokeColor=inherit;" vertex="1" parent="UE2ysa2cql5D2mdt5GFg-90">
          <mxGeometry y="210" width="190" height="10" as="geometry" />
        </mxCell>
        <mxCell id="UE2ysa2cql5D2mdt5GFg-97" value="+ setter (type): type" style="text;strokeColor=none;fillColor=none;align=left;verticalAlign=top;spacingLeft=4;spacingRight=4;overflow=hidden;rotatable=0;points=[[0,0.5],[1,0.5]];portConstraint=eastwest;whiteSpace=wrap;html=1;" vertex="1" parent="UE2ysa2cql5D2mdt5GFg-90">
          <mxGeometry y="220" width="190" height="40" as="geometry" />
        </mxCell>
        <mxCell id="UE2ysa2cql5D2mdt5GFg-98" value="+ getter (type): type" style="text;strokeColor=none;fillColor=none;align=left;verticalAlign=top;spacingLeft=4;spacingRight=4;overflow=hidden;rotatable=0;points=[[0,0.5],[1,0.5]];portConstraint=eastwest;whiteSpace=wrap;html=1;" vertex="1" parent="UE2ysa2cql5D2mdt5GFg-90">
          <mxGeometry y="260" width="190" height="40" as="geometry" />
        </mxCell>
        <mxCell id="UE2ysa2cql5D2mdt5GFg-103" value="password_hasher" style="swimlane;fontStyle=1;align=center;verticalAlign=top;childLayout=stackLayout;horizontal=1;startSize=26;horizontalStack=0;resizeParent=1;resizeParentMax=0;resizeLast=0;collapsible=1;marginBottom=0;whiteSpace=wrap;html=1;" vertex="1" parent="WIyWlLk6GJQsqaUBKTNV-1">
          <mxGeometry x="801" y="208" width="440" height="200" as="geometry">
            <mxRectangle x="70" y="-400" width="100" height="30" as="alternateBounds" />
          </mxGeometry>
        </mxCell>
        <mxCell id="UE2ysa2cql5D2mdt5GFg-104" value="- hashed_passwords_dict: dict&amp;lt; name:string , hashed_password:string &amp;gt;" style="text;strokeColor=none;fillColor=none;align=left;verticalAlign=top;spacingLeft=4;spacingRight=4;overflow=hidden;rotatable=0;points=[[0,0.5],[1,0.5]];portConstraint=eastwest;whiteSpace=wrap;html=1;" vertex="1" parent="UE2ysa2cql5D2mdt5GFg-103">
          <mxGeometry y="26" width="440" height="26" as="geometry" />
        </mxCell>
        <mxCell id="UE2ysa2cql5D2mdt5GFg-109" value="" style="line;strokeWidth=1;fillColor=none;align=left;verticalAlign=middle;spacingTop=-1;spacingLeft=3;spacingRight=3;rotatable=0;labelPosition=right;points=[];portConstraint=eastwest;strokeColor=inherit;" vertex="1" parent="UE2ysa2cql5D2mdt5GFg-103">
          <mxGeometry y="52" width="440" height="68" as="geometry" />
        </mxCell>
        <mxCell id="UE2ysa2cql5D2mdt5GFg-114" value="+ check_pass (username: string , password:string ): boolean" style="text;strokeColor=none;fillColor=none;align=left;verticalAlign=top;spacingLeft=4;spacingRight=4;overflow=hidden;rotatable=0;points=[[0,0.5],[1,0.5]];portConstraint=eastwest;whiteSpace=wrap;html=1;" vertex="1" parent="UE2ysa2cql5D2mdt5GFg-103">
          <mxGeometry y="120" width="440" height="40" as="geometry" />
        </mxCell>
        <mxCell id="UE2ysa2cql5D2mdt5GFg-113" value="+ hash_pass (string): void" style="text;strokeColor=none;fillColor=none;align=left;verticalAlign=top;spacingLeft=4;spacingRight=4;overflow=hidden;rotatable=0;points=[[0,0.5],[1,0.5]];portConstraint=eastwest;whiteSpace=wrap;html=1;" vertex="1" parent="UE2ysa2cql5D2mdt5GFg-103">
          <mxGeometry y="160" width="440" height="40" as="geometry" />
        </mxCell>
        <mxCell id="UE2ysa2cql5D2mdt5GFg-115" value="" style="html=1;whiteSpace=wrap;fillColor=#fff2cc;labelBackgroundColor=default;strokeColor=#d6b656;opacity=50;" vertex="1" parent="WIyWlLk6GJQsqaUBKTNV-1">
          <mxGeometry x="-370" y="1160" width="1500" height="1040" as="geometry" />
        </mxCell>
        <mxCell id="UE2ysa2cql5D2mdt5GFg-116" value="persestence layer" style="text;html=1;strokeColor=none;fillColor=none;align=center;verticalAlign=middle;whiteSpace=wrap;rounded=0;fontSize=50;fontColor=#999900;fontStyle=1" vertex="1" parent="WIyWlLk6GJQsqaUBKTNV-1">
          <mxGeometry x="1000" y="1305" width="640" height="100" as="geometry" />
        </mxCell>
        <mxCell id="UE2ysa2cql5D2mdt5GFg-171" style="edgeStyle=orthogonalEdgeStyle;rounded=0;orthogonalLoop=1;jettySize=auto;html=1;" edge="1" parent="WIyWlLk6GJQsqaUBKTNV-1" source="UE2ysa2cql5D2mdt5GFg-175" target="UE2ysa2cql5D2mdt5GFg-134">
          <mxGeometry relative="1" as="geometry" />
        </mxCell>
        <mxCell id="UE2ysa2cql5D2mdt5GFg-117" value="repo_controller" style="swimlane;fontStyle=1;align=center;verticalAlign=top;childLayout=stackLayout;horizontal=1;startSize=26;horizontalStack=0;resizeParent=1;resizeParentMax=0;resizeLast=0;collapsible=1;marginBottom=0;whiteSpace=wrap;html=1;" vertex="1" parent="WIyWlLk6GJQsqaUBKTNV-1">
          <mxGeometry x="160" y="1270" width="360" height="372" as="geometry">
            <mxRectangle x="70" y="-400" width="100" height="30" as="alternateBounds" />
          </mxGeometry>
        </mxCell>
        <mxCell id="UE2ysa2cql5D2mdt5GFg-118" value="+ field: type" style="text;strokeColor=none;fillColor=none;align=left;verticalAlign=top;spacingLeft=4;spacingRight=4;overflow=hidden;rotatable=0;points=[[0,0.5],[1,0.5]];portConstraint=eastwest;whiteSpace=wrap;html=1;" vertex="1" parent="UE2ysa2cql5D2mdt5GFg-117">
          <mxGeometry y="26" width="360" height="26" as="geometry" />
        </mxCell>
        <mxCell id="UE2ysa2cql5D2mdt5GFg-119" value="" style="line;strokeWidth=1;fillColor=none;align=left;verticalAlign=middle;spacingTop=-1;spacingLeft=3;spacingRight=3;rotatable=0;labelPosition=right;points=[];portConstraint=eastwest;strokeColor=inherit;" vertex="1" parent="UE2ysa2cql5D2mdt5GFg-117">
          <mxGeometry y="52" width="360" height="8" as="geometry" />
        </mxCell>
        <mxCell id="UE2ysa2cql5D2mdt5GFg-120" value="+ select_turing_machine(ID : string ): turing_machine_model" style="text;strokeColor=none;fillColor=none;align=left;verticalAlign=top;spacingLeft=4;spacingRight=4;overflow=hidden;rotatable=0;points=[[0,0.5],[1,0.5]];portConstraint=eastwest;whiteSpace=wrap;html=1;" vertex="1" parent="UE2ysa2cql5D2mdt5GFg-117">
          <mxGeometry y="60" width="360" height="26" as="geometry" />
        </mxCell>
        <mxCell id="UE2ysa2cql5D2mdt5GFg-160" value="+ select_user(ID : string ): user_model" style="text;strokeColor=none;fillColor=none;align=left;verticalAlign=top;spacingLeft=4;spacingRight=4;overflow=hidden;rotatable=0;points=[[0,0.5],[1,0.5]];portConstraint=eastwest;whiteSpace=wrap;html=1;" vertex="1" parent="UE2ysa2cql5D2mdt5GFg-117">
          <mxGeometry y="86" width="360" height="26" as="geometry" />
        </mxCell>
        <mxCell id="UE2ysa2cql5D2mdt5GFg-161" value="+ select_challenge(ID : string ): challenge_model" style="text;strokeColor=none;fillColor=none;align=left;verticalAlign=top;spacingLeft=4;spacingRight=4;overflow=hidden;rotatable=0;points=[[0,0.5],[1,0.5]];portConstraint=eastwest;whiteSpace=wrap;html=1;" vertex="1" parent="UE2ysa2cql5D2mdt5GFg-117">
          <mxGeometry y="112" width="360" height="26" as="geometry" />
        </mxCell>
        <mxCell id="UE2ysa2cql5D2mdt5GFg-162" value="+ update_challenge(ID : string ): bool" style="text;strokeColor=none;fillColor=none;align=left;verticalAlign=top;spacingLeft=4;spacingRight=4;overflow=hidden;rotatable=0;points=[[0,0.5],[1,0.5]];portConstraint=eastwest;whiteSpace=wrap;html=1;" vertex="1" parent="UE2ysa2cql5D2mdt5GFg-117">
          <mxGeometry y="138" width="360" height="26" as="geometry" />
        </mxCell>
        <mxCell id="UE2ysa2cql5D2mdt5GFg-163" value="+ update_user(ID : string ): bool" style="text;strokeColor=none;fillColor=none;align=left;verticalAlign=top;spacingLeft=4;spacingRight=4;overflow=hidden;rotatable=0;points=[[0,0.5],[1,0.5]];portConstraint=eastwest;whiteSpace=wrap;html=1;" vertex="1" parent="UE2ysa2cql5D2mdt5GFg-117">
          <mxGeometry y="164" width="360" height="26" as="geometry" />
        </mxCell>
        <mxCell id="UE2ysa2cql5D2mdt5GFg-164" value="+ update_turing_machine(ID : string ): bool" style="text;strokeColor=none;fillColor=none;align=left;verticalAlign=top;spacingLeft=4;spacingRight=4;overflow=hidden;rotatable=0;points=[[0,0.5],[1,0.5]];portConstraint=eastwest;whiteSpace=wrap;html=1;" vertex="1" parent="UE2ysa2cql5D2mdt5GFg-117">
          <mxGeometry y="190" width="360" height="26" as="geometry" />
        </mxCell>
        <mxCell id="UE2ysa2cql5D2mdt5GFg-165" value="+ delete_turing_machine(ID : string ): bool" style="text;strokeColor=none;fillColor=none;align=left;verticalAlign=top;spacingLeft=4;spacingRight=4;overflow=hidden;rotatable=0;points=[[0,0.5],[1,0.5]];portConstraint=eastwest;whiteSpace=wrap;html=1;" vertex="1" parent="UE2ysa2cql5D2mdt5GFg-117">
          <mxGeometry y="216" width="360" height="26" as="geometry" />
        </mxCell>
        <mxCell id="UE2ysa2cql5D2mdt5GFg-166" value="+ delete_user(ID : string ): bool" style="text;strokeColor=none;fillColor=none;align=left;verticalAlign=top;spacingLeft=4;spacingRight=4;overflow=hidden;rotatable=0;points=[[0,0.5],[1,0.5]];portConstraint=eastwest;whiteSpace=wrap;html=1;" vertex="1" parent="UE2ysa2cql5D2mdt5GFg-117">
          <mxGeometry y="242" width="360" height="26" as="geometry" />
        </mxCell>
        <mxCell id="UE2ysa2cql5D2mdt5GFg-167" value="+ delete_challenge(ID : string ): bool" style="text;strokeColor=none;fillColor=none;align=left;verticalAlign=top;spacingLeft=4;spacingRight=4;overflow=hidden;rotatable=0;points=[[0,0.5],[1,0.5]];portConstraint=eastwest;whiteSpace=wrap;html=1;" vertex="1" parent="UE2ysa2cql5D2mdt5GFg-117">
          <mxGeometry y="268" width="360" height="26" as="geometry" />
        </mxCell>
        <mxCell id="UE2ysa2cql5D2mdt5GFg-168" value="+ insert_turing_machine(ID : string ): bool&lt;span style=&quot;white-space: pre;&quot;&gt;&#x9;&lt;/span&gt;" style="text;strokeColor=none;fillColor=none;align=left;verticalAlign=top;spacingLeft=4;spacingRight=4;overflow=hidden;rotatable=0;points=[[0,0.5],[1,0.5]];portConstraint=eastwest;whiteSpace=wrap;html=1;" vertex="1" parent="UE2ysa2cql5D2mdt5GFg-117">
          <mxGeometry y="294" width="360" height="26" as="geometry" />
        </mxCell>
        <mxCell id="UE2ysa2cql5D2mdt5GFg-169" value="+ insert_user(ID : string ): bool" style="text;strokeColor=none;fillColor=none;align=left;verticalAlign=top;spacingLeft=4;spacingRight=4;overflow=hidden;rotatable=0;points=[[0,0.5],[1,0.5]];portConstraint=eastwest;whiteSpace=wrap;html=1;" vertex="1" parent="UE2ysa2cql5D2mdt5GFg-117">
          <mxGeometry y="320" width="360" height="26" as="geometry" />
        </mxCell>
        <mxCell id="UE2ysa2cql5D2mdt5GFg-170" value="+ insert_challenge(ID : string ): bool" style="text;strokeColor=none;fillColor=none;align=left;verticalAlign=top;spacingLeft=4;spacingRight=4;overflow=hidden;rotatable=0;points=[[0,0.5],[1,0.5]];portConstraint=eastwest;whiteSpace=wrap;html=1;" vertex="1" parent="UE2ysa2cql5D2mdt5GFg-117">
          <mxGeometry y="346" width="360" height="26" as="geometry" />
        </mxCell>
        <mxCell id="UE2ysa2cql5D2mdt5GFg-125" value="user_model" style="swimlane;fontStyle=1;align=center;verticalAlign=top;childLayout=stackLayout;horizontal=1;startSize=26;horizontalStack=0;resizeParent=1;resizeParentMax=0;resizeLast=0;collapsible=1;marginBottom=0;whiteSpace=wrap;html=1;" vertex="1" parent="WIyWlLk6GJQsqaUBKTNV-1">
          <mxGeometry x="200" y="1960" width="190" height="170" as="geometry">
            <mxRectangle x="70" y="-400" width="100" height="30" as="alternateBounds" />
          </mxGeometry>
        </mxCell>
        <mxCell id="UE2ysa2cql5D2mdt5GFg-126" value="- ID: string" style="text;strokeColor=none;fillColor=none;align=left;verticalAlign=top;spacingLeft=4;spacingRight=4;overflow=hidden;rotatable=0;points=[[0,0.5],[1,0.5]];portConstraint=eastwest;whiteSpace=wrap;html=1;" vertex="1" parent="UE2ysa2cql5D2mdt5GFg-125">
          <mxGeometry y="26" width="190" height="26" as="geometry" />
        </mxCell>
        <mxCell id="UE2ysa2cql5D2mdt5GFg-127" value="- name : string" style="text;strokeColor=none;fillColor=none;align=left;verticalAlign=top;spacingLeft=4;spacingRight=4;overflow=hidden;rotatable=0;points=[[0,0.5],[1,0.5]];portConstraint=eastwest;whiteSpace=wrap;html=1;" vertex="1" parent="UE2ysa2cql5D2mdt5GFg-125">
          <mxGeometry y="52" width="190" height="26" as="geometry" />
        </mxCell>
        <mxCell id="UE2ysa2cql5D2mdt5GFg-128" value="- role : string" style="text;strokeColor=none;fillColor=none;align=left;verticalAlign=top;spacingLeft=4;spacingRight=4;overflow=hidden;rotatable=0;points=[[0,0.5],[1,0.5]];portConstraint=eastwest;whiteSpace=wrap;html=1;" vertex="1" parent="UE2ysa2cql5D2mdt5GFg-125">
          <mxGeometry y="78" width="190" height="26" as="geometry" />
        </mxCell>
        <mxCell id="UE2ysa2cql5D2mdt5GFg-129" value="- register_date : string" style="text;strokeColor=none;fillColor=none;align=left;verticalAlign=top;spacingLeft=4;spacingRight=4;overflow=hidden;rotatable=0;points=[[0,0.5],[1,0.5]];portConstraint=eastwest;whiteSpace=wrap;html=1;" vertex="1" parent="UE2ysa2cql5D2mdt5GFg-125">
          <mxGeometry y="104" width="190" height="26" as="geometry" />
        </mxCell>
        <mxCell id="UE2ysa2cql5D2mdt5GFg-130" value="- password : string" style="text;strokeColor=none;fillColor=none;align=left;verticalAlign=top;spacingLeft=4;spacingRight=4;overflow=hidden;rotatable=0;points=[[0,0.5],[1,0.5]];portConstraint=eastwest;whiteSpace=wrap;html=1;" vertex="1" parent="UE2ysa2cql5D2mdt5GFg-125">
          <mxGeometry y="130" width="190" height="20" as="geometry" />
        </mxCell>
        <mxCell id="UE2ysa2cql5D2mdt5GFg-131" value="" style="line;strokeWidth=1;fillColor=none;align=left;verticalAlign=middle;spacingTop=-1;spacingLeft=3;spacingRight=3;rotatable=0;labelPosition=right;points=[];portConstraint=eastwest;strokeColor=inherit;" vertex="1" parent="UE2ysa2cql5D2mdt5GFg-125">
          <mxGeometry y="150" width="190" height="20" as="geometry" />
        </mxCell>
        <mxCell id="UE2ysa2cql5D2mdt5GFg-134" value="turing_machine_model" style="swimlane;fontStyle=1;align=center;verticalAlign=top;childLayout=stackLayout;horizontal=1;startSize=26;horizontalStack=0;resizeParent=1;resizeParentMax=0;resizeLast=0;collapsible=1;marginBottom=0;whiteSpace=wrap;html=1;" vertex="1" parent="WIyWlLk6GJQsqaUBKTNV-1">
          <mxGeometry x="-140" y="1680" width="190" height="170" as="geometry">
            <mxRectangle x="70" y="-400" width="100" height="30" as="alternateBounds" />
          </mxGeometry>
        </mxCell>
        <mxCell id="UE2ysa2cql5D2mdt5GFg-135" value="- ID: string" style="text;strokeColor=none;fillColor=none;align=left;verticalAlign=top;spacingLeft=4;spacingRight=4;overflow=hidden;rotatable=0;points=[[0,0.5],[1,0.5]];portConstraint=eastwest;whiteSpace=wrap;html=1;" vertex="1" parent="UE2ysa2cql5D2mdt5GFg-134">
          <mxGeometry y="26" width="190" height="26" as="geometry" />
        </mxCell>
        <mxCell id="UE2ysa2cql5D2mdt5GFg-136" value="- name : string" style="text;strokeColor=none;fillColor=none;align=left;verticalAlign=top;spacingLeft=4;spacingRight=4;overflow=hidden;rotatable=0;points=[[0,0.5],[1,0.5]];portConstraint=eastwest;whiteSpace=wrap;html=1;" vertex="1" parent="UE2ysa2cql5D2mdt5GFg-134">
          <mxGeometry y="52" width="190" height="26" as="geometry" />
        </mxCell>
        <mxCell id="UE2ysa2cql5D2mdt5GFg-137" value="- author_id : string" style="text;strokeColor=none;fillColor=none;align=left;verticalAlign=top;spacingLeft=4;spacingRight=4;overflow=hidden;rotatable=0;points=[[0,0.5],[1,0.5]];portConstraint=eastwest;whiteSpace=wrap;html=1;" vertex="1" parent="UE2ysa2cql5D2mdt5GFg-134">
          <mxGeometry y="78" width="190" height="26" as="geometry" />
        </mxCell>
        <mxCell id="UE2ysa2cql5D2mdt5GFg-138" value="- creation_date : string" style="text;strokeColor=none;fillColor=none;align=left;verticalAlign=top;spacingLeft=4;spacingRight=4;overflow=hidden;rotatable=0;points=[[0,0.5],[1,0.5]];portConstraint=eastwest;whiteSpace=wrap;html=1;" vertex="1" parent="UE2ysa2cql5D2mdt5GFg-134">
          <mxGeometry y="104" width="190" height="26" as="geometry" />
        </mxCell>
        <mxCell id="UE2ysa2cql5D2mdt5GFg-139" value="- code : string" style="text;strokeColor=none;fillColor=none;align=left;verticalAlign=top;spacingLeft=4;spacingRight=4;overflow=hidden;rotatable=0;points=[[0,0.5],[1,0.5]];portConstraint=eastwest;whiteSpace=wrap;html=1;" vertex="1" parent="UE2ysa2cql5D2mdt5GFg-134">
          <mxGeometry y="130" width="190" height="20" as="geometry" />
        </mxCell>
        <mxCell id="UE2ysa2cql5D2mdt5GFg-140" value="" style="line;strokeWidth=1;fillColor=none;align=left;verticalAlign=middle;spacingTop=-1;spacingLeft=3;spacingRight=3;rotatable=0;labelPosition=right;points=[];portConstraint=eastwest;strokeColor=inherit;" vertex="1" parent="UE2ysa2cql5D2mdt5GFg-134">
          <mxGeometry y="150" width="190" height="20" as="geometry" />
        </mxCell>
        <mxCell id="UE2ysa2cql5D2mdt5GFg-143" value="challenge_model" style="swimlane;fontStyle=1;align=center;verticalAlign=top;childLayout=stackLayout;horizontal=1;startSize=26;horizontalStack=0;resizeParent=1;resizeParentMax=0;resizeLast=0;collapsible=1;marginBottom=0;whiteSpace=wrap;html=1;" vertex="1" parent="WIyWlLk6GJQsqaUBKTNV-1">
          <mxGeometry x="700" y="1950" width="190" height="220" as="geometry">
            <mxRectangle x="70" y="-400" width="100" height="30" as="alternateBounds" />
          </mxGeometry>
        </mxCell>
        <mxCell id="UE2ysa2cql5D2mdt5GFg-144" value="- ID: string" style="text;strokeColor=none;fillColor=none;align=left;verticalAlign=top;spacingLeft=4;spacingRight=4;overflow=hidden;rotatable=0;points=[[0,0.5],[1,0.5]];portConstraint=eastwest;whiteSpace=wrap;html=1;" vertex="1" parent="UE2ysa2cql5D2mdt5GFg-143">
          <mxGeometry y="26" width="190" height="26" as="geometry" />
        </mxCell>
        <mxCell id="UE2ysa2cql5D2mdt5GFg-145" value="- name : string" style="text;strokeColor=none;fillColor=none;align=left;verticalAlign=top;spacingLeft=4;spacingRight=4;overflow=hidden;rotatable=0;points=[[0,0.5],[1,0.5]];portConstraint=eastwest;whiteSpace=wrap;html=1;" vertex="1" parent="UE2ysa2cql5D2mdt5GFg-143">
          <mxGeometry y="52" width="190" height="26" as="geometry" />
        </mxCell>
        <mxCell id="UE2ysa2cql5D2mdt5GFg-146" value="- creator_id : string" style="text;strokeColor=none;fillColor=none;align=left;verticalAlign=top;spacingLeft=4;spacingRight=4;overflow=hidden;rotatable=0;points=[[0,0.5],[1,0.5]];portConstraint=eastwest;whiteSpace=wrap;html=1;" vertex="1" parent="UE2ysa2cql5D2mdt5GFg-143">
          <mxGeometry y="78" width="190" height="26" as="geometry" />
        </mxCell>
        <mxCell id="UE2ysa2cql5D2mdt5GFg-147" value="- creation_date : string" style="text;strokeColor=none;fillColor=none;align=left;verticalAlign=top;spacingLeft=4;spacingRight=4;overflow=hidden;rotatable=0;points=[[0,0.5],[1,0.5]];portConstraint=eastwest;whiteSpace=wrap;html=1;" vertex="1" parent="UE2ysa2cql5D2mdt5GFg-143">
          <mxGeometry y="104" width="190" height="26" as="geometry" />
        </mxCell>
        <mxCell id="UE2ysa2cql5D2mdt5GFg-148" value="- description : string" style="text;strokeColor=none;fillColor=none;align=left;verticalAlign=top;spacingLeft=4;spacingRight=4;overflow=hidden;rotatable=0;points=[[0,0.5],[1,0.5]];portConstraint=eastwest;whiteSpace=wrap;html=1;" vertex="1" parent="UE2ysa2cql5D2mdt5GFg-143">
          <mxGeometry y="130" width="190" height="20" as="geometry" />
        </mxCell>
        <mxCell id="UE2ysa2cql5D2mdt5GFg-149" value="- expiry_date : string" style="text;strokeColor=none;fillColor=none;align=left;verticalAlign=top;spacingLeft=4;spacingRight=4;overflow=hidden;rotatable=0;points=[[0,0.5],[1,0.5]];portConstraint=eastwest;whiteSpace=wrap;html=1;" vertex="1" parent="UE2ysa2cql5D2mdt5GFg-143">
          <mxGeometry y="150" width="190" height="20" as="geometry" />
        </mxCell>
        <mxCell id="UE2ysa2cql5D2mdt5GFg-150" value="- legal_words : string" style="text;strokeColor=none;fillColor=none;align=left;verticalAlign=top;spacingLeft=4;spacingRight=4;overflow=hidden;rotatable=0;points=[[0,0.5],[1,0.5]];portConstraint=eastwest;whiteSpace=wrap;html=1;" vertex="1" parent="UE2ysa2cql5D2mdt5GFg-143">
          <mxGeometry y="170" width="190" height="20" as="geometry" />
        </mxCell>
        <mxCell id="UE2ysa2cql5D2mdt5GFg-151" value="- illegal_words : string" style="text;strokeColor=none;fillColor=none;align=left;verticalAlign=top;spacingLeft=4;spacingRight=4;overflow=hidden;rotatable=0;points=[[0,0.5],[1,0.5]];portConstraint=eastwest;whiteSpace=wrap;html=1;" vertex="1" parent="UE2ysa2cql5D2mdt5GFg-143">
          <mxGeometry y="190" width="190" height="20" as="geometry" />
        </mxCell>
        <mxCell id="UE2ysa2cql5D2mdt5GFg-152" value="" style="line;strokeWidth=1;fillColor=none;align=left;verticalAlign=middle;spacingTop=-1;spacingLeft=3;spacingRight=3;rotatable=0;labelPosition=right;points=[];portConstraint=eastwest;strokeColor=inherit;" vertex="1" parent="UE2ysa2cql5D2mdt5GFg-143">
          <mxGeometry y="210" width="190" height="10" as="geometry" />
        </mxCell>
        <mxCell id="UE2ysa2cql5D2mdt5GFg-172" value="" style="edgeStyle=orthogonalEdgeStyle;rounded=0;orthogonalLoop=1;jettySize=auto;html=1;endArrow=none;endFill=0;" edge="1" parent="WIyWlLk6GJQsqaUBKTNV-1" source="UE2ysa2cql5D2mdt5GFg-117" target="UE2ysa2cql5D2mdt5GFg-173">
          <mxGeometry relative="1" as="geometry">
            <mxPoint x="160" y="1456" as="sourcePoint" />
            <mxPoint x="-45" y="1680" as="targetPoint" />
          </mxGeometry>
        </mxCell>
        <mxCell id="UE2ysa2cql5D2mdt5GFg-173" value="1" style="text;html=1;strokeColor=none;fillColor=none;align=center;verticalAlign=middle;whiteSpace=wrap;rounded=0;" vertex="1" parent="WIyWlLk6GJQsqaUBKTNV-1">
          <mxGeometry x="120" y="1441" width="10" height="30" as="geometry" />
        </mxCell>
        <mxCell id="UE2ysa2cql5D2mdt5GFg-174" value="" style="edgeStyle=orthogonalEdgeStyle;rounded=0;orthogonalLoop=1;jettySize=auto;html=1;endArrow=none;endFill=0;" edge="1" parent="WIyWlLk6GJQsqaUBKTNV-1" source="UE2ysa2cql5D2mdt5GFg-173" target="UE2ysa2cql5D2mdt5GFg-175">
          <mxGeometry relative="1" as="geometry">
            <mxPoint x="120" y="1456" as="sourcePoint" />
            <mxPoint x="-45" y="1680" as="targetPoint" />
          </mxGeometry>
        </mxCell>
        <mxCell id="UE2ysa2cql5D2mdt5GFg-175" value="n" style="text;html=1;strokeColor=none;fillColor=none;align=center;verticalAlign=middle;whiteSpace=wrap;rounded=0;" vertex="1" parent="WIyWlLk6GJQsqaUBKTNV-1">
          <mxGeometry x="-75" y="1620" width="60" height="20" as="geometry" />
        </mxCell>
        <mxCell id="UE2ysa2cql5D2mdt5GFg-178" style="edgeStyle=orthogonalEdgeStyle;rounded=0;orthogonalLoop=1;jettySize=auto;html=1;" edge="1" parent="WIyWlLk6GJQsqaUBKTNV-1" source="UE2ysa2cql5D2mdt5GFg-182" target="UE2ysa2cql5D2mdt5GFg-125">
          <mxGeometry relative="1" as="geometry">
            <mxPoint x="125" y="1909" as="targetPoint" />
          </mxGeometry>
        </mxCell>
        <mxCell id="UE2ysa2cql5D2mdt5GFg-179" value="" style="edgeStyle=orthogonalEdgeStyle;rounded=0;orthogonalLoop=1;jettySize=auto;html=1;endArrow=none;endFill=0;" edge="1" parent="WIyWlLk6GJQsqaUBKTNV-1" target="UE2ysa2cql5D2mdt5GFg-180" source="UE2ysa2cql5D2mdt5GFg-117">
          <mxGeometry relative="1" as="geometry">
            <mxPoint x="330" y="1685" as="sourcePoint" />
            <mxPoint x="125" y="1909" as="targetPoint" />
          </mxGeometry>
        </mxCell>
        <mxCell id="UE2ysa2cql5D2mdt5GFg-180" value="1" style="text;html=1;strokeColor=none;fillColor=none;align=center;verticalAlign=middle;whiteSpace=wrap;rounded=0;" vertex="1" parent="WIyWlLk6GJQsqaUBKTNV-1">
          <mxGeometry x="290" y="1670" width="10" height="30" as="geometry" />
        </mxCell>
        <mxCell id="UE2ysa2cql5D2mdt5GFg-181" value="" style="edgeStyle=orthogonalEdgeStyle;rounded=0;orthogonalLoop=1;jettySize=auto;html=1;endArrow=none;endFill=0;" edge="1" parent="WIyWlLk6GJQsqaUBKTNV-1" source="UE2ysa2cql5D2mdt5GFg-180" target="UE2ysa2cql5D2mdt5GFg-182">
          <mxGeometry relative="1" as="geometry">
            <mxPoint x="290" y="1685" as="sourcePoint" />
            <mxPoint x="125" y="1909" as="targetPoint" />
            <Array as="points">
              <mxPoint x="290" y="1710" />
              <mxPoint x="290" y="1710" />
            </Array>
          </mxGeometry>
        </mxCell>
        <mxCell id="UE2ysa2cql5D2mdt5GFg-182" value="n" style="text;html=1;strokeColor=none;fillColor=none;align=center;verticalAlign=middle;whiteSpace=wrap;rounded=0;" vertex="1" parent="WIyWlLk6GJQsqaUBKTNV-1">
          <mxGeometry x="260" y="1890" width="60" height="20" as="geometry" />
        </mxCell>
        <mxCell id="UE2ysa2cql5D2mdt5GFg-183" style="edgeStyle=orthogonalEdgeStyle;rounded=0;orthogonalLoop=1;jettySize=auto;html=1;" edge="1" parent="WIyWlLk6GJQsqaUBKTNV-1" source="UE2ysa2cql5D2mdt5GFg-187" target="UE2ysa2cql5D2mdt5GFg-143">
          <mxGeometry relative="1" as="geometry">
            <mxPoint x="475" y="1919" as="targetPoint" />
          </mxGeometry>
        </mxCell>
        <mxCell id="UE2ysa2cql5D2mdt5GFg-184" value="" style="edgeStyle=orthogonalEdgeStyle;rounded=0;orthogonalLoop=1;jettySize=auto;html=1;endArrow=none;endFill=0;" edge="1" parent="WIyWlLk6GJQsqaUBKTNV-1" target="UE2ysa2cql5D2mdt5GFg-185" source="UE2ysa2cql5D2mdt5GFg-117">
          <mxGeometry relative="1" as="geometry">
            <mxPoint x="680" y="1695" as="sourcePoint" />
            <mxPoint x="475" y="1919" as="targetPoint" />
          </mxGeometry>
        </mxCell>
        <mxCell id="UE2ysa2cql5D2mdt5GFg-185" value="1" style="text;html=1;strokeColor=none;fillColor=none;align=center;verticalAlign=middle;whiteSpace=wrap;rounded=0;" vertex="1" parent="WIyWlLk6GJQsqaUBKTNV-1">
          <mxGeometry x="670" y="1450" width="10" height="30" as="geometry" />
        </mxCell>
        <mxCell id="UE2ysa2cql5D2mdt5GFg-186" value="" style="edgeStyle=orthogonalEdgeStyle;rounded=0;orthogonalLoop=1;jettySize=auto;html=1;endArrow=none;endFill=0;" edge="1" parent="WIyWlLk6GJQsqaUBKTNV-1" source="UE2ysa2cql5D2mdt5GFg-185" target="UE2ysa2cql5D2mdt5GFg-187">
          <mxGeometry relative="1" as="geometry">
            <mxPoint x="640" y="1695" as="sourcePoint" />
            <mxPoint x="475" y="1919" as="targetPoint" />
            <Array as="points">
              <mxPoint x="760" y="1465" />
              <mxPoint x="760" y="1540" />
              <mxPoint x="770" y="1540" />
            </Array>
          </mxGeometry>
        </mxCell>
        <mxCell id="UE2ysa2cql5D2mdt5GFg-187" value="n" style="text;html=1;strokeColor=none;fillColor=none;align=center;verticalAlign=middle;whiteSpace=wrap;rounded=0;" vertex="1" parent="WIyWlLk6GJQsqaUBKTNV-1">
          <mxGeometry x="740" y="1870" width="60" height="20" as="geometry" />
        </mxCell>
        <mxCell id="UE2ysa2cql5D2mdt5GFg-193" value="1" style="text;html=1;strokeColor=none;fillColor=none;align=center;verticalAlign=middle;whiteSpace=wrap;rounded=0;" vertex="1" parent="WIyWlLk6GJQsqaUBKTNV-1">
          <mxGeometry x="340" y="1230" width="60" height="30" as="geometry" />
        </mxCell>
        <mxCell id="UE2ysa2cql5D2mdt5GFg-194" style="edgeStyle=orthogonalEdgeStyle;rounded=0;orthogonalLoop=1;jettySize=auto;html=1;" edge="1" parent="WIyWlLk6GJQsqaUBKTNV-1" source="UE2ysa2cql5D2mdt5GFg-31" target="UE2ysa2cql5D2mdt5GFg-32">
          <mxGeometry relative="1" as="geometry" />
        </mxCell>
        <mxCell id="UE2ysa2cql5D2mdt5GFg-195" value="1" style="text;html=1;strokeColor=none;fillColor=none;align=center;verticalAlign=middle;whiteSpace=wrap;rounded=0;" vertex="1" parent="WIyWlLk6GJQsqaUBKTNV-1">
          <mxGeometry x="220" y="220" width="60" height="30" as="geometry" />
        </mxCell>
        <mxCell id="UE2ysa2cql5D2mdt5GFg-196" value="1" style="text;html=1;strokeColor=none;fillColor=none;align=center;verticalAlign=middle;whiteSpace=wrap;rounded=0;" vertex="1" parent="WIyWlLk6GJQsqaUBKTNV-1">
          <mxGeometry x="-200" y="378" width="60" height="30" as="geometry" />
        </mxCell>
        <mxCell id="UE2ysa2cql5D2mdt5GFg-199" value="n" style="text;html=1;strokeColor=none;fillColor=none;align=center;verticalAlign=middle;whiteSpace=wrap;rounded=0;" vertex="1" parent="WIyWlLk6GJQsqaUBKTNV-1">
          <mxGeometry x="-250" y="650" width="60" height="30" as="geometry" />
        </mxCell>
        <mxCell id="UE2ysa2cql5D2mdt5GFg-204" value="n" style="text;html=1;strokeColor=none;fillColor=none;align=center;verticalAlign=middle;whiteSpace=wrap;rounded=0;" vertex="1" parent="WIyWlLk6GJQsqaUBKTNV-1">
          <mxGeometry x="740" y="680" width="60" height="30" as="geometry" />
        </mxCell>
        <mxCell id="UE2ysa2cql5D2mdt5GFg-205" value="n" style="text;html=1;strokeColor=none;fillColor=none;align=center;verticalAlign=middle;whiteSpace=wrap;rounded=0;" vertex="1" parent="WIyWlLk6GJQsqaUBKTNV-1">
          <mxGeometry x="1130" y="600" width="60" height="30" as="geometry" />
        </mxCell>
        <mxCell id="UE2ysa2cql5D2mdt5GFg-207" value="1" style="text;html=1;strokeColor=none;fillColor=none;align=center;verticalAlign=middle;whiteSpace=wrap;rounded=0;" vertex="1" parent="WIyWlLk6GJQsqaUBKTNV-1">
          <mxGeometry x="1060" y="150" width="60" height="30" as="geometry" />
        </mxCell>
        <mxCell id="UE2ysa2cql5D2mdt5GFg-208" value="1" style="text;html=1;strokeColor=none;fillColor=none;align=center;verticalAlign=middle;whiteSpace=wrap;rounded=0;" vertex="1" parent="WIyWlLk6GJQsqaUBKTNV-1">
          <mxGeometry x="630" y="150" width="60" height="30" as="geometry" />
        </mxCell>
        <mxCell id="UE2ysa2cql5D2mdt5GFg-209" value="1" style="text;html=1;strokeColor=none;fillColor=none;align=center;verticalAlign=middle;whiteSpace=wrap;rounded=0;" vertex="1" parent="WIyWlLk6GJQsqaUBKTNV-1">
          <mxGeometry x="630" y="208" width="60" height="30" as="geometry" />
        </mxCell>
        <mxCell id="UE2ysa2cql5D2mdt5GFg-210" value="1" style="text;html=1;strokeColor=none;fillColor=none;align=center;verticalAlign=middle;whiteSpace=wrap;rounded=0;" vertex="1" parent="WIyWlLk6GJQsqaUBKTNV-1">
          <mxGeometry x="530" y="230" width="60" height="30" as="geometry" />
        </mxCell>
        <mxCell id="UE2ysa2cql5D2mdt5GFg-211" value="1" style="text;html=1;strokeColor=none;fillColor=none;align=center;verticalAlign=middle;whiteSpace=wrap;rounded=0;" vertex="1" parent="WIyWlLk6GJQsqaUBKTNV-1">
          <mxGeometry x="400" y="226" width="60" height="30" as="geometry" />
        </mxCell>
        <mxCell id="UE2ysa2cql5D2mdt5GFg-212" value="1" style="text;html=1;strokeColor=none;fillColor=none;align=center;verticalAlign=middle;whiteSpace=wrap;rounded=0;" vertex="1" parent="WIyWlLk6GJQsqaUBKTNV-1">
          <mxGeometry x="200" y="150" width="60" height="30" as="geometry" />
        </mxCell>
        <mxCell id="UE2ysa2cql5D2mdt5GFg-213" value="1" style="text;html=1;strokeColor=none;fillColor=none;align=center;verticalAlign=middle;whiteSpace=wrap;rounded=0;" vertex="1" parent="WIyWlLk6GJQsqaUBKTNV-1">
          <mxGeometry x="330" y="240" width="60" height="30" as="geometry" />
        </mxCell>
        <mxCell id="UE2ysa2cql5D2mdt5GFg-214" style="edgeStyle=orthogonalEdgeStyle;rounded=0;orthogonalLoop=1;jettySize=auto;html=1;entryX=0.425;entryY=0.017;entryDx=0;entryDy=0;entryPerimeter=0;" edge="1" parent="WIyWlLk6GJQsqaUBKTNV-1" source="UE2ysa2cql5D2mdt5GFg-6" target="UE2ysa2cql5D2mdt5GFg-28">
          <mxGeometry relative="1" as="geometry">
            <Array as="points">
              <mxPoint x="150" y="-260" />
              <mxPoint x="423" y="-260" />
            </Array>
          </mxGeometry>
        </mxCell>
        <mxCell id="UE2ysa2cql5D2mdt5GFg-215" value="1" style="text;html=1;strokeColor=none;fillColor=none;align=center;verticalAlign=middle;whiteSpace=wrap;rounded=0;" vertex="1" parent="WIyWlLk6GJQsqaUBKTNV-1">
          <mxGeometry x="100" y="-290" width="60" height="30" as="geometry" />
        </mxCell>
        <mxCell id="UE2ysa2cql5D2mdt5GFg-216" value="1" style="text;html=1;strokeColor=none;fillColor=none;align=center;verticalAlign=middle;whiteSpace=wrap;rounded=0;" vertex="1" parent="WIyWlLk6GJQsqaUBKTNV-1">
          <mxGeometry x="435" y="100" width="60" height="30" as="geometry" />
        </mxCell>
      </root>
    </mxGraphModel>
  </diagram>
</mxfile>
